<?xml version="1.0" encoding="iso-8859-1"?>
<!-- Generator: Adobe Illustrator 16.0.0, SVG Export Plug-In . SVG Version: 6.00 Build 0)  -->
<!DOCTYPE svg PUBLIC "-//W3C//DTD SVG 1.1//EN" "http://www.w3.org/Graphics/SVG/1.1/DTD/svg11.dtd">
<svg version="1.1" id="Capa_1" xmlns="http://www.w3.org/2000/svg" xmlns:xlink="http://www.w3.org/1999/xlink" x="0px" y="0px"
	 width="162.117px" height="162.117px" viewBox="0 0 162.117 162.117" style="enable-background:new 0 0 162.117 162.117;"
	 xml:space="preserve" fill="#666">
<g>
	<g>
		<path d="M137.177,0H24.941c-5.158,0-9.353,4.195-9.353,9.353v143.412c0,5.157,4.195,9.353,9.353,9.353h112.236
			c5.157,0,9.353-4.195,9.353-9.353V9.353C146.529,4.195,142.334,0,137.177,0z M133.328,6.646c2.472,0,4.47,2.003,4.47,4.479
			s-1.998,4.476-4.47,4.476c-2.473,0-4.481-2-4.481-4.476S130.855,6.646,133.328,6.646z M118.275,6.646
			c2.473,0,4.481,2.003,4.481,4.479s-2.003,4.476-4.481,4.476c-2.472,0-4.476-2-4.476-4.476S115.804,6.646,118.275,6.646z
			 M103.224,6.646c2.472,0,4.481,2.003,4.481,4.479s-2.004,4.476-4.481,4.476c-2.473,0-4.47-2-4.47-4.476
			S100.751,6.646,103.224,6.646z M140.294,152.765c0,1.717-1.4,3.117-3.117,3.117H24.941c-1.714,0-3.118-1.4-3.118-3.117V19.129
			h118.471V152.765z"/>
		<rect x="37.412" y="109.117" width="49.882" height="6.235"/>
		<rect x="37.412" y="90.996" width="49.882" height="6.235"/>
		<rect x="37.412" y="72.878" width="87.294" height="6.235"/>
		<rect x="37.412" y="54.76" width="87.294" height="6.235"/>
		<rect x="37.412" y="36.638" width="87.294" height="6.235"/>
	</g>
</g>
<g>
</g>
<g>
</g>
<g>
</g>
<g>
</g>
<g>
</g>
<g>
</g>
<g>
</g>
<g>
</g>
<g>
</g>
<g>
</g>
<g>
</g>
<g>
</g>
<g>
</g>
<g>
</g>
<g>
</g>
</svg>
